<svg id="Layer_2" data-name="Layer 2" xmlns="http://www.w3.org/2000/svg" viewBox="0 0 293.55 204.07">
  <g>
    <path d="M358.47,473.93c1.49,2.3,2.69,4.47,4.2,6.41,5.81,7.45,13.81,11.89,22.2,15.72,12.33,5.61,25.36,9,38.57,11.81a373.21,373.21,0,0,0,75.61,8.18h2.47V483.88l59.06,59-59,59V570.11c-5.31,0-10.3.23-15.27,0A308.3,308.3,0,0,1,400.16,553c-12.7-4.48-23.86-11.35-32.7-21.71C362.2,525.14,359,518,358.67,510c-.46-11.39-.42-22.79-.57-34.2A9.76,9.76,0,0,1,358.47,473.93Z" transform="translate(-358.1 -397.81)"/>
    <path d="M459.55,433.72l35.94-35.91v21.65h3.63a468.39,468.39,0,0,1,67.45,5.09c14.06,2.17,28.06,4.81,41.43,9.89,9,3.41,17.12,8.16,23.81,15.17a27.36,27.36,0,0,1,6.66,11.56,9.66,9.66,0,0,1-.9,7.7,21.5,21.5,0,0,1-11,9.71,2.93,2.93,0,0,1-2.45-.18c-14.27-11-31-16.19-48.12-20.35a352.34,352.34,0,0,0-78.87-9.92c-.4,0-.81.06-1.44.11V469.8Z" transform="translate(-358.1 -397.81)"/>
    <path d="M578.74,567.52v-2.71c0-17.57,0-35.15-.06-52.72,0-2.17.74-2.75,2.69-3.15,16.65-3.47,33-7.92,48.13-15.94,6.22-3.29,12-7.15,16.51-12.71,1.64-2,2.91-4.38,4.48-6.78.26,3.36.6,6.68.76,10,.5,10.57.88,21.15-1.15,31.62-2.33,12.08-8.37,21.77-18.51,28.85a156.65,156.65,0,0,1-51.48,23.44A9.87,9.87,0,0,1,578.74,567.52Z" transform="translate(-358.1 -397.81)"/>
    <path d="M439,424v27.8c-21.37,4.08-42.49,8.64-59.36,23.9-7.65-4.3-12.06-13-10.12-20.51,1.43-5.55,5.61-9,10.15-11.83,15.3-9.63,32.2-14.91,49.92-17.81Z" transform="translate(-358.1 -397.81)"/>
  </g>
</svg>
