<svg id="Layer_1" data-name="Layer 1" xmlns="http://www.w3.org/2000/svg" viewBox="0 0 970.66 752.32"><path d="M43.13,449.05A44.42,44.42,0,0,0,20.34,507.4l149,340a44.43,44.43,0,0,0,58.35,22.79L956.33,550.86a44.43,44.43,0,0,0,22.8-58.35l-149-340a44.42,44.42,0,0,0-58.35-22.79ZM704.29,198c22.31-9.78,27.74-2.53,12.05,16.12l-488.2,580.2c-15.69,18.64-36.52,15.64-46.3-6.68L67,525.64a44.42,44.42,0,0,1,22.79-58.35ZM292.8,803c-22.31,9.78-27.73,2.53-12.05-16.11L770.81,204.42c15.69-18.64,36.52-15.63,46.3,6.68L932.45,474.28a44.43,44.43,0,0,1-22.8,58.35Z" transform="translate(-14.4 -123.8)" fill="#fff"/><path d="M210,876.12a46.59,46.59,0,0,1-42.67-27.84l-149-340A46.56,46.56,0,0,1,42.24,447l.89,2-.89-2L770.89,127.71a46.63,46.63,0,0,1,61.27,23.93l149,340a46.63,46.63,0,0,1-23.93,61.27L228.57,872.21A46.33,46.33,0,0,1,210,876.12ZM789.45,128.23a41.77,41.77,0,0,0-16.78,3.53L44,451.08a42.14,42.14,0,0,0-21.66,55.44l149,340a42.12,42.12,0,0,0,55.43,21.65L955.45,548.83A42.22,42.22,0,0,0,977.1,493.4l-149-340a42.41,42.41,0,0,0-38.66-25.18ZM277.31,809.52c-3,0-5.24-.88-6.56-2.64-3-4.08-.25-11.3,8.31-21.47L769.12,203c8.1-9.63,17.82-14.17,27.38-12.79s17.59,8.48,22.64,20L934.47,473.39a46.63,46.63,0,0,1-23.93,61.27L293.69,805l-.89-2,.89,2C286.79,808,281.31,809.52,277.31,809.52ZM793.15,194.4c-7.13,0-14.36,4-20.64,11.45L282.45,788.26c-8.4,10-9.07,14.73-8.15,16s5.67,1.93,17.62-3.3L908.77,530.6a42.22,42.22,0,0,0,21.65-55.43L815.08,212c-4.41-10.07-11.23-16.24-19.22-17.39A18.9,18.9,0,0,0,793.15,194.4ZM205.82,808.78a22.58,22.58,0,0,1-3.37-.25c-9.55-1.37-17.59-8.48-22.64-20L65,526.53a46.63,46.63,0,0,1,23.93-61.27L703.4,196c12.17-5.33,19.89-6,22.94-1.9s.25,11.3-8.3,21.47L229.83,795.75C222.68,804.24,214.27,808.78,205.82,808.78ZM704.29,198l.89,2L90.7,469.31a42.21,42.21,0,0,0-21.65,55.44l114.82,262c4.41,10.06,11.23,16.24,19.22,17.39s16.28-2.84,23.35-11.25L714.65,212.69c8.39-10,9.06-14.73,8.14-16s-5.67-1.93-17.61,3.3Z" transform="translate(-14.4 -123.8)" fill="#fff"/><path d="M415.86,568.71q1.78,4.08-15.54,30.64-17.1,26-20.57,27.55-12.35,5.42-17.37-6.07l-.49-1.11-24.54-66.48c-.54-1.24-1.08-2.62-1.59-4.16s-1.11-3.05-1.76-4.53q-10-22.95-21.55-32.93t-21.53-5.57q-6.56,2.88-8.28,6.28l-9.93,14.06L318.85,639l-32.48,35L249,578.27l-1.79-4.08a97.24,97.24,0,0,0-8.32-15.33,69.47,69.47,0,0,0-9.35-11.35,32.49,32.49,0,0,0-9.29-6.52q-4.56-2-8-.46-5.4,2.37-10.94,9.65L189.38,566l47.7,108.86L206,708.79,159.41,602.53q-7.47-17-38.21-27.4,3.92-19.36,19.47-36.34,16.94-1.23,35.11,6.68L217,496.93l41.63,10,38.52-41.15q.66-1.62,3.75-3,3.85-1.69,10.72-.73,36.1,5.82,50.55,38.76l1,2.22c.55,1.24,1.18,2.87,1.92,4.9s1.57,4.46,2.5,7.29q2.47,7.75,5.21,14.49t5.42,14q2.37,6.46,4.65,11.64l4.05,9.26q3.74,8.52,3.49,12.16,2.88-3.91,6.87-9c2.66-3.37,5.11-6.71,7.32-10l10.21,9.66Z" transform="translate(-14.4 -123.8)" fill="#fff"/><path d="M205.19,713.55,157,603.58c-4.65-10.59-17-19.33-36.64-26l-2.2-.74.46-2.28c2.7-13.33,9.47-26,20.11-37.6l.71-.77,1-.07c11.1-.82,22.72,1.25,34.55,6.12L216.09,494l41.71,10L295,464.28c.82-1.52,2.42-2.8,4.89-3.87,3.05-1.34,7-1.64,12.14-.92,25,4,42.63,17.57,52.59,40.3l1,2.23c.56,1.27,1.21,2.92,2,5.05s1.59,4.52,2.53,7.36c1.62,5.08,3.35,9.89,5.15,14.33s3.66,9.26,5.45,14c1.54,4.22,3.09,8.09,4.59,11.52l4,9.25a66.62,66.62,0,0,1,2.62,6.81c1-1.31,2.09-2.71,3.27-4.2,2.63-3.33,5-6.66,7.19-9.87l1.73-2.6,12.74,12.08,1.24,1.57.14.31c1.14,2.6,1,7.53-15.75,33.14-17.53,26.69-20.25,27.88-21.71,28.52-9.52,4.17-16.92,1.54-20.84-7.42l-.55-1.26-24.51-66.41c-.58-1.33-1.13-2.77-1.65-4.3s-1.06-2.93-1.67-4.31c-6.51-14.87-13.53-25.64-20.87-32-6.89-6-13-7.66-18.74-5.15-4.71,2.06-6.4,3.89-7,5.05l-.2.34-9.1,12.88,46.24,112.85-36.49,39.29-38.86-99.6-1.77-4a94.64,94.64,0,0,0-8.1-14.92,67.24,67.24,0,0,0-9-10.92,30.3,30.3,0,0,0-8.52-6c-2.35-1-4.29-1.17-5.91-.46-3.17,1.39-6.5,4.36-9.91,8.84l-11,14.57,47.77,109ZM124.27,573.41c19.85,7.05,32.47,16.48,37.55,28.06l45,102.57L234,674.34l-47.64-108.7,12.85-17c4-5.28,7.93-8.7,12-10.48,3-1.31,6.41-1.16,10.13.46a35.3,35.3,0,0,1,10.06,7,72.19,72.19,0,0,1,9.71,11.78,100.58,100.58,0,0,1,8.55,15.75l1.83,4.17,35.83,91.83,28.49-30.67-46-112.42L280.39,511c1.48-2.77,4.59-5.17,9.48-7.31,7.66-3.36,15.83-1.34,24.3,6,7.93,6.88,15.41,18.28,22.24,33.86.67,1.53,1.29,3.12,1.84,4.74.48,1.42,1,2.75,1.51,3.95l.06.14,24.51,66.42.46,1c2.75,6.27,7,7.72,13.9,4.71.7-.39,4.29-3.55,19.43-26.58,13.67-21,15.23-26.62,15.28-28.07l-.53-.66-7.82-7.4c-1.76,2.51-3.66,5.08-5.69,7.64-2.71,3.44-4.94,6.35-6.82,8.91l-5.34,7.25.59-9c.08-1.12-.25-4-3.27-10.92l-4-9.26c-1.55-3.52-3.13-7.49-4.71-11.8-1.76-4.7-3.58-9.38-5.39-13.87s-3.62-9.51-5.27-14.68c-.92-2.77-1.76-5.2-2.48-7.2s-1.33-3.56-1.85-4.73l-1-2.22c-9.33-21.29-25.21-33.46-48.56-37.22-4-.56-7.14-.38-9.24.54s-2.38,1.56-2.38,1.56l-.18.44-39.89,42.63-41.55-10-41.47,48.79-1.8-.78c-11.29-4.91-22.33-7.11-32.82-6.53C132.92,551.37,127,562.14,124.27,573.41Zm289.12-3.82Z" transform="translate(-14.4 -123.8)" fill="#fff"/><path d="M573.26,518.71a49.05,49.05,0,0,1-5.58,7.74q-4.06,4.88-10.32,11.59-15.11,15.88-27.84,21.46-22,9.64-43.52,1.42-20.82-7.63-29.42-27.27l-1.78-4.08-24.91-69.41Q424.48,448.85,392,445a101.29,101.29,0,0,1,7-12.79q5.25-8.49,14.91-24.2l-.22.54q12.1-26.93,20.59-30.65,5.4-2.37,13.84,16.89l3.41,7.78,48.59-21.3q7.73-3.37,10.48,2.91a7.81,7.81,0,0,1,.69,3.67l.46,21-49,21.46q5.37,17.52,11.29,32.58t11.43,27.65q10.06,23,23.37,32.35t26.43,3.65a53,53,0,0,0,11-7q6.32-5,14.89-12.7l10.39,6.92Z" transform="translate(-14.4 -123.8)" fill="#fff"/><path d="M505.92,567.32a58.1,58.1,0,0,1-20.85-3.94c-14.49-5.31-24.89-15-30.9-28.68l-1.85-4.24-24.86-69.28c-2.26-4.55-10.33-10.55-35.79-13.58l-3.46-.41,1.34-3.21a103,103,0,0,1,7.23-13.17q5.25-8.47,14.9-24.16c8.26-18.24,15.32-28.43,21.56-31.17,6.93-3,12.89,8.16,17.31,18.24l2.35,5.37,46.19-20.24c3-1.34,10.49-3.59,13.94,4.27a10.37,10.37,0,0,1,.91,4.77l.5,22.64L466,431.76c3.33,10.68,6.86,20.81,10.53,30.14,3.91,10,7.75,19.25,11.39,27.56,6.48,14.8,14,25.31,22.48,31.26,8.14,5.75,15.94,6.85,23.85,3.39a50.83,50.83,0,0,0,10.38-6.67c4.12-3.24,9.09-7.48,14.76-12.59l1.52-1.37L573.73,512l2.38,6.89-.52,1a50.21,50.21,0,0,1-5.89,8.21c-2.7,3.23-6.2,7.17-10.42,11.69-10.28,10.82-19.93,18.24-28.7,22.08A61,61,0,0,1,505.92,567.32ZM457.24,528.6l1.75,4c5.49,12.52,14.62,21,27.92,25.86,13.65,5.21,27.62,4.75,41.55-1.36,8.13-3.56,17.21-10.58,27-20.87,4.13-4.43,7.57-8.29,10.21-11.46a57.17,57.17,0,0,0,4.72-6.31l-1-3-8-5.3c-5.13,4.58-9.67,8.43-13.5,11.45a56.06,56.06,0,0,1-11.53,7.35c-9.61,4.21-19.36,2.89-29-3.91-9.23-6.51-17.39-17.76-24.26-33.44-3.67-8.38-7.53-17.71-11.47-27.75s-7.79-21.14-11.35-32.76l-.69-2.25,49.52-21.7-.43-19.34v-.12a5.18,5.18,0,0,0-.47-2.43c-.83-1.88-2.12-3.7-7-1.56l-51,22.35-4.46-10.18c-7.07-16.12-10.34-15.55-10.37-15.54-3.45,1.51-9.59,7.83-19.25,29.32l-.07,0q-9.57,15.57-14.78,24c-2.29,3.7-4.08,6.8-5.35,9.26,20.6,2.85,32.51,8.15,36.35,16.18l.11.25Z" transform="translate(-14.4 -123.8)" fill="#fff"/><path d="M799.64,559q-18.71,36-60.36,54.26-30.87,13.53-58.4,8.38-28.32-4.82-37.4-25.54T652,530.55q-21.13-3.1-26.64-15.69-2.61-5.92,1.87-25.1,2-7,4.33-14.26a98.17,98.17,0,0,1,5.81-14q-22.18-1.31-35.31-10.79t-22.53-30.95q-13.78-31.47-4.3-61.23,9.71-30.3,39-43.15a86.09,86.09,0,0,1,32.3-7.09,112.78,112.78,0,0,1,11.86.32,29.61,29.61,0,0,1,9.49,2.24l47-19.71,7.16,30-30.47,13.35,3.89,8.89q22.89,52.2-7.53,89.81-11.81,14-18.59,23.16t-9.74,14q-4.29,8.07-2.5,12.13,2.92,6.68,7.16,4.81l.78-.34,67.23-31.23,1.54-.67q19.68-8.62,40,1,20.15,9.27,30.37,32.59Q819,522.26,799.64,559ZM751,495.12q-12.18-2.61-38.79,9.06a115.1,115.1,0,0,0-14.67,8q-8.1,5.1-18.93,12.93-15.51,27.54-8.37,43.84,7.29,16.67,26.1,22.32t43.88-5.32q21.59-9.46,29.86-29.42,9-20.29.28-40.29Q762.21,497.7,751,495.12ZM642.25,349.88q-17.65-13-28.84-8.11-8.88,3.9-10,15.43t5.5,26.72q10.23,23.32,25.12,34.23t28.4,5q20.82-9.12,9.14-35.78A94.13,94.13,0,0,0,642.25,349.88Z" transform="translate(-14.4 -123.8)" fill="#fff"/><path d="M696.22,625.66a86.72,86.72,0,0,1-15.83-1.45c-19.67-3.34-32.92-12.46-39.32-27.08-6.2-14.14-3.81-35.27,7.31-64.53-13.13-2.52-21.69-8.13-25.44-16.68-2-4.6-1.46-13.1,1.73-26.76l0-.11c1.3-4.64,2.76-9.48,4.36-14.36a101.34,101.34,0,0,1,4.26-10.88c-13.44-1.27-24.46-5-32.8-11-9.09-6.57-17-17.35-23.4-32-9.41-21.48-10.9-42.71-4.4-63.08,6.69-20.86,20.3-35.92,40.48-44.76a89.08,89.08,0,0,1,33.27-7.31,113.26,113.26,0,0,1,12.16.33,33.69,33.69,0,0,1,9.26,2l48.84-20.49,8.39,35.13-30.07,13.17,2.84,6.48c15.61,35.62,13,66.75-7.91,92.53-7.86,9.34-14.08,17.09-18.52,23.06s-7.66,10.61-9.56,13.72c-3.17,6-2.85,8.69-2.38,9.77,1.87,4.25,3.15,3.69,3.7,3.45l.77-.34,67.18-31.21,1.6-.7c13.77-6,28-5.68,42.17,1.05,13.94,6.41,24.6,17.83,31.66,33.92,10.13,23.12,8.57,47.58-4.63,72.68-12.7,24.44-33.44,43.09-61.64,55.45C725.13,622.31,710.36,625.66,696.22,625.66ZM629.78,490.41c-3.52,15.1-3,21.06-2,23.39,3.27,7.47,11.55,12.23,24.61,14.14l3.28.48-1.21,3.09c-11.42,29-14.3,50.42-8.56,63.51s17.32,20.93,35.43,24c17.78,3.33,36.91.57,56.9-8.19,27.07-11.87,46.95-29.72,59.08-53.06v0c12.42-23.61,13.92-46.54,4.46-68.12-6.51-14.87-16.29-25.39-29.06-31.26-13-6.15-25.34-6.47-37.83-1l-1.54.67-67.19,31.21-.82.36c-2.48,1.09-7.17,1.74-10.63-6.16-1.55-3.52-.7-8.24,2.59-14.42l.08-.14c2-3.29,5.23-7.92,9.86-14.17,4.5-6.07,10.79-13.9,18.69-23.28,19.49-24.09,21.9-53.39,7.14-87.07l-4.95-11.29L719,319.56l-5.93-24.81L667.87,313.7l-1-.46a27.1,27.1,0,0,0-8.64-2,110.58,110.58,0,0,0-11.58-.31,83.79,83.79,0,0,0-31.3,6.87C596.58,326,583.94,340,577.73,359.31c-6.09,19.11-4.68,39.09,4.21,59.37,6.06,13.82,13.35,23.87,21.66,29.88s19.72,9.46,33.92,10.3l4,.23-1.83,3.58a96.84,96.84,0,0,0-5.65,13.65C632.5,481.12,631.06,485.86,629.78,490.41Zm80,105.38a49.1,49.1,0,0,1-14.23-2c-13.25-4-22.58-12-27.75-23.78-5.09-11.62-2.24-27.15,8.49-46.19l.28-.5L677,523c7.22-5.23,13.63-9.61,19.07-13a117.58,117.58,0,0,1,15-8.15c18.44-8.08,31.65-11.1,40.4-9.22h0c8.32,1.91,15.44,9.51,21.18,22.6,6.12,14,6,28.24-.28,42.41-5.74,13.83-16.25,24.2-31.22,30.76C729.9,593.3,719.37,595.79,709.77,595.79Zm-29.19-68.91c-9.64,17.28-12.32,31.06-8,41,4.58,10.47,12.58,17.29,24.45,20.86s26,1.82,42.06-5.21c13.68-6,23.27-15.42,28.49-28,5.79-13,5.88-25.48.3-38.22-5-11.47-10.92-18-17.52-19.58-7.53-1.6-20,1.39-37.16,8.9a112,112,0,0,0-14.32,7.79C693.68,517.66,687.52,521.86,680.58,526.88Zm-27.84-99c-6.61,0-13.39-2.53-20.28-7.58-10.26-7.51-19-19.39-26-35.3-4.59-10.5-6.52-19.93-5.71-28,.87-8.68,4.77-14.59,11.59-17.58,8.34-3.65,18.92-.83,31.45,8.4l.05,0A97.18,97.18,0,0,1,674,386.3c5.81,13.26,8.71,30.84-10.5,39.26A26.62,26.62,0,0,1,652.74,427.86ZM620,343.07a13.67,13.67,0,0,0-5.54,1.11c-5,2.2-7.79,6.55-8.46,13.28-.72,7.2,1.06,15.75,5.29,25.4,6.6,15.06,14.77,26.22,24.27,33.17,9.19,6.74,17.63,8.28,25.78,4.7,16.51-7.23,12.35-21.91,7.79-32.32A92.07,92.07,0,0,0,640.67,352C632.61,346.05,625.69,343.07,620,343.07Z" transform="translate(-14.4 -123.8)" fill="#fff"/><path d="M868.87,420.06l-.16-.37a10.6,10.6,0,0,1-6.32,7.62,11.88,11.88,0,0,1-9.17.05l.16.37-24.78-7.24.39-.17c-4.69-.89-7.73-2.93-9.14-6.15q-1.62-3.69.29-9.83l8.47-25.78.16.37a9,9,0,0,1,5.32-6.75,12,12,0,0,1,6.22-.51l27.41,7q7.74,1.9,9.68,6.35c1.2,2.72,1.15,6.12-.12,10.21Z" transform="translate(-14.4 -123.8)" fill="#fff"/><path d="M858.05,431.84,820.9,421l1.11-.49a11.72,11.72,0,0,1-4.57-5.27c-1.34-3.06-1.27-7,.19-11.68l10.62-32.33.68,1.53a11.5,11.5,0,0,1,4.11-3,14.41,14.41,0,0,1,7.6-.72l.31.07,27.42,7c6,1.47,9.81,4.11,11.45,7.84,1.44,3.3,1.43,7.35,0,12.05l-10.61,31.38-.62-1.42a13.32,13.32,0,0,1-5.11,3.79,13.56,13.56,0,0,1-5.82,1.16Zm-9.72-9.08,5.8,2.13a9.28,9.28,0,0,0,7.21,0,8,8,0,0,0,4.81-5.83l1.83-7.6.57,1.3,6.24-18.43c1.05-3.38,1.13-6.2.2-8.3s-3.6-3.79-7.9-4.85l-27.27-6.93a9.47,9.47,0,0,0-4.67.33,6.38,6.38,0,0,0-3.81,4.9l-1.73,7.87L829,385.9l-6.33,19.26c-1.06,3.41-1.19,6.1-.38,8,1,2.38,3.41,3.89,7.22,4.62l8.36,1.59-1.54.67,12.41,3.63Z" transform="translate(-14.4 -123.8)" fill="#fff"/></svg>